<svg xmlns="http://www.w3.org/2000/svg"  viewBox="0 0 256 256" width="64px" height="64px"><path fill="#F4EFED" d="M235.559,154.008H20.441c-3.056,0-5.534-2.477-5.534-5.534V9.533C14.908,6.477,17.385,4,20.441,4h215.118 c3.056,0,5.534,2.477,5.534,5.533v138.941C241.092,151.531,238.615,154.008,235.559,154.008z"/><path fill="#FF9F70" d="M193.687,223.746L193.687,223.746c-9.616,0-17.411-7.896-17.411-17.637v-12.21 c0-9.741,7.795-17.637,17.411-17.637l0,0c9.616,0,17.411,7.896,17.411,17.637v12.21 C211.098,215.849,203.303,223.746,193.687,223.746z"/><path fill="#690589" d="M193.687,225.746c-10.703,0-19.411-8.809-19.411-19.637v-12.21c0-10.828,8.708-19.637,19.411-19.637 c10.703,0,19.411,8.809,19.411,19.637v12.21C213.098,216.936,204.39,225.746,193.687,225.746z M193.687,178.261 c-8.497,0-15.411,7.015-15.411,15.637v12.21c0,8.623,6.914,15.637,15.411,15.637c8.498,0,15.411-7.015,15.411-15.637v-12.21 C209.098,185.276,202.185,178.261,193.687,178.261z"/><path fill="#D6D1CF" d="M235.559,4h-11.067c3.056,0,5.533,2.477,5.533,5.533v138.941c0,3.056-2.477,5.534-5.533,5.534h11.067 c3.056,0,5.534-2.477,5.534-5.534V9.534C241.092,6.477,238.615,4,235.559,4z"/><path fill="#FFF" d="M20.441,154.008h11.067c-3.056,0-5.533-2.477-5.533-5.534V9.534C25.975,6.477,28.452,4,31.508,4H20.441 c-3.056,0-5.534,2.477-5.534,5.533v138.941C14.908,151.531,17.385,154.008,20.441,154.008z"/><path fill="#690589" d="M235.559,156.008H20.441c-4.154,0-7.533-3.379-7.533-7.534V9.534C12.908,5.379,16.287,2,20.441,2h215.118 c4.154,0,7.533,3.379,7.533,7.534v138.941C243.092,152.629,239.713,156.008,235.559,156.008z M20.441,6 c-1.948,0-3.533,1.585-3.533,3.534v138.941c0,1.949,1.585,3.534,3.533,3.534h215.118c1.948,0,3.533-1.585,3.533-3.534V9.534 c0-1.948-1.585-3.534-3.533-3.534H20.441z"/><path fill="#690589" d="M23.078,41.143c-1.104,0-2-0.896-2-2v-12c0-1.104,0.896-2,2-2s2,0.896,2,2v12 C25.078,40.247,24.182,41.143,23.078,41.143z"/><path fill="#526FAA" d="M218.163,140.043h-5.646h-10.146c0.009-0.162,0.025-0.323,0.025-0.488v-15.891h-17.419v15.891 c0,0.165,0.016,0.326,0.025,0.488h-10.145h-5.646c-6.099,0-11.044,4.944-11.044,11.044v14.374h71.04v-14.374 C229.207,144.987,224.262,140.043,218.163,140.043z"/><path fill="#34518C" d="M218.163,140.043h-5.646h-3.275c6.099,0,11.044,4.944,11.044,11.044v14.374h8.922v-14.374 C229.207,144.987,224.262,140.043,218.163,140.043z"/><path fill="#708DC8" d="M169.211,140.043h5.646h3.275c-6.099,0-11.044,4.944-11.044,11.044v14.374h-8.922v-14.374 C158.167,144.987,163.111,140.043,169.211,140.043z"/><path fill="#E18152" d="M202.38,140.005l0.016-16.34h-17.419l0.016,16.341c0.005,4.798,3.895,8.684,8.693,8.684l0,0 C198.484,148.689,202.375,144.803,202.38,140.005z"/><path fill="#690589" d="M229.206,167.461h-71.039c-1.105,0-2-0.896-2-2v-14.374c0-7.192,5.852-13.044,13.044-13.044h13.767 v-14.378c0-1.104,0.896-2,2-2h17.419c1.105,0,2,0.896,2,2v14.378h13.767c7.192,0,13.044,5.852,13.044,13.044v14.374 C231.206,166.565,230.311,167.461,229.206,167.461z M160.167,163.461h67.039v-12.374c0-4.987-4.057-9.044-9.044-9.044h-15.792 c-0.55,0-1.076-0.227-1.454-0.627c-0.378-0.4-0.574-0.938-0.543-1.487l0.01-0.163c0.005-0.07,0.011-0.14,0.011-0.211v-13.891 h-13.419v13.891c0,0.071,0.006,0.141,0.011,0.211l0.01,0.163c0.032,0.549-0.164,1.087-0.542,1.487 c-0.378,0.4-0.904,0.627-1.454,0.627h-15.791c-4.987,0-9.044,4.057-9.044,9.044V163.461z"/><path fill="#690589" d="M193.687,150.689c-5.89,0-10.688-4.792-10.693-10.682l-0.016-16.341c0-0.531,0.21-1.04,0.585-1.415 c0.376-0.375,0.884-0.586,1.415-0.586h17.419c0.531,0,1.04,0.211,1.415,0.586c0.375,0.376,0.585,0.885,0.585,1.415l-0.016,16.341 l0,0C204.374,145.898,199.577,150.689,193.687,150.689z M186.98,125.665l0.014,14.339c0.004,3.686,3.006,6.686,6.693,6.686 c3.687,0,6.689-3,6.693-6.686l0.014-14.339H186.98z M202.38,140.005h0.01H202.38z"/><path fill="#FF9F70" d="M193.687,134.904L193.687,134.904c-10.4,0-18.83-8.54-18.83-19.074v-13.205 c0-10.534,8.43-19.074,18.83-19.074l0,0c10.399,0,18.83,8.54,18.83,19.074v13.205 C212.517,126.364,204.086,134.904,193.687,134.904z"/><path fill="#690589" d="M193.687,136.904c-11.486,0-20.83-9.454-20.83-21.074v-13.206c0-11.621,9.344-21.074,20.83-21.074 c11.485,0,20.83,9.454,20.83,21.074v13.206C214.517,127.45,205.172,136.904,193.687,136.904z M193.687,85.55 c-9.28,0-16.83,7.66-16.83,17.074v13.206c0,9.414,7.55,17.074,16.83,17.074c9.28,0,16.83-7.66,16.83-17.074v-13.206 C210.517,93.21,202.967,85.55,193.687,85.55z"/><path fill="#FCC24C" d="M216.319,228.497h-5.221h-9.381c0.009-0.15,0.023-0.298,0.023-0.451v-6.648 c0-4.443-3.602-8.045-8.045-8.045h-0.016c-4.443,0-8.045,3.602-8.045,8.045v6.648c0,0.153,0.014,0.301,0.023,0.451h-9.381h-5.221 c-5.64,0-10.212,4.572-10.212,10.212V252h65.687v-13.291C226.53,233.069,221.958,228.497,216.319,228.497z"/><path fill="#DEA42E" d="M216.319,228.497h-5.221h-3.029c5.64,0,10.212,4.572,10.212,10.212V252h8.249v-13.291 C226.53,233.069,221.958,228.497,216.319,228.497z"/><path fill="#FCE06A" d="M171.055,228.497h5.221h3.029c-5.64,0-10.212,4.572-10.212,10.212V252h-8.249v-13.291 C160.843,233.069,165.415,228.497,171.055,228.497z"/><path fill="#690589" d="M226.53,254h-65.687c-1.105,0-2-0.895-2-2v-13.291c0-6.734,5.478-12.212,12.212-12.212h12.579v-5.099 c0-5.538,4.506-10.045,10.045-10.045c5.555,0,10.061,4.506,10.061,10.045v5.099h12.579c6.734,0,12.212,5.478,12.212,12.212V252 C228.53,253.105,227.635,254,226.53,254z M162.843,250h61.687v-11.291c0-4.528-3.684-8.212-8.212-8.212h-14.602 c-0.551,0-1.077-0.227-1.455-0.628c-0.378-0.4-0.574-0.939-0.542-1.489l0.009-0.143c0.004-0.063,0.01-0.126,0.01-0.19v-6.648 c0-3.333-2.712-6.045-6.045-6.045c-3.349,0-6.061,2.712-6.061,6.045v6.648c0,0.061,0.005,0.12,0.01,0.179l0.01,0.162 c0.03,0.548-0.166,1.085-0.544,1.485c-0.378,0.399-0.903,0.626-1.453,0.626h-14.601c-4.528,0-8.212,3.684-8.212,8.212V250z"/><path fill="#E18152" d="M185.657,228.497h16.06v-7.114c0-4.435-3.595-8.03-8.03-8.03l0,0c-4.435,0-8.03,3.595-8.03,8.03V228.497z"/><path fill="#690589" d="M201.717,230.497h-16.06c-1.104,0-2-0.896-2-2v-7.114c0-5.53,4.5-10.03,10.03-10.03 c5.53,0,10.03,4.499,10.03,10.03v7.114C203.717,229.602,202.821,230.497,201.717,230.497z M187.657,226.497h12.06v-5.114 c0-3.325-2.705-6.03-6.03-6.03c-3.325,0-6.03,2.705-6.03,6.03V226.497z"/><path fill="#FF9F70" d="M128,223.746L128,223.746c-9.616,0-17.411-7.896-17.411-17.637v-12.21c0-9.741,7.795-17.637,17.411-17.637 l0,0c9.616,0,17.411,7.896,17.411,17.637v12.21C145.411,215.849,137.616,223.746,128,223.746z"/><path fill="#690589" d="M128,225.746c-10.703,0-19.411-8.809-19.411-19.637v-12.21c0-10.828,8.708-19.637,19.411-19.637 c10.703,0,19.411,8.809,19.411,19.637v12.21C147.411,216.936,138.703,225.746,128,225.746z M128,178.261 c-8.498,0-15.411,7.015-15.411,15.637v12.21c0,8.623,6.914,15.637,15.411,15.637c8.498,0,15.411-7.015,15.411-15.637v-12.21 C143.411,185.276,136.498,178.261,128,178.261z"/><path fill="#FCC24C" d="M150.632,228.497h-5.221h-9.381c0.009-0.15,0.023-0.298,0.023-0.451v-6.648 c0-4.443-3.602-8.045-8.045-8.045h-0.016c-4.443,0-8.045,3.602-8.045,8.045v6.648c0,0.153,0.015,0.301,0.023,0.451h-9.381h-5.221 c-5.64,0-10.212,4.572-10.212,10.212V252h65.687v-13.291C160.843,233.069,156.271,228.497,150.632,228.497z"/><path fill="#DEA42E" d="M150.632,228.497h-5.221h-3.029c5.64,0,10.212,4.572,10.212,10.212V252h8.249v-13.291 C160.843,233.069,156.271,228.497,150.632,228.497z"/><path fill="#FCE06A" d="M105.368,228.497h5.221h3.029c-5.64,0-10.212,4.572-10.212,10.212V252h-8.249v-13.291 C95.157,233.069,99.729,228.497,105.368,228.497z"/><path fill="#690589" d="M160.843,254H95.157c-1.104,0-2-0.895-2-2v-13.291c0-6.734,5.478-12.212,12.212-12.212h12.579v-5.099 c0-5.538,4.506-10.045,10.045-10.045c5.555,0,10.062,4.506,10.062,10.045v5.099h12.579c6.733,0,12.212,5.478,12.212,12.212V252 C162.843,253.105,161.948,254,160.843,254z M97.157,250h61.687v-11.291c0-4.528-3.684-8.212-8.212-8.212H136.03 c-0.551,0-1.077-0.227-1.455-0.628c-0.378-0.4-0.574-0.939-0.542-1.489l0.01-0.15c0.004-0.061,0.01-0.122,0.01-0.183v-6.648 c0-3.333-2.712-6.045-6.045-6.045c-3.349,0-6.061,2.712-6.061,6.045v6.648c0,0.061,0.006,0.122,0.01,0.183l0.01,0.15 c0.032,0.55-0.164,1.089-0.542,1.489c-0.378,0.401-0.904,0.628-1.455,0.628h-14.602c-4.528,0-8.212,3.684-8.212,8.212V250z"/><path fill="#E18152" d="M119.97,228.497h16.06v-7.114c0-4.435-3.595-8.03-8.03-8.03l0,0c-4.435,0-8.03,3.595-8.03,8.03V228.497z"/><path fill="#690589" d="M136.03,230.497h-16.06c-1.104,0-2-0.896-2-2v-7.114c0-5.53,4.5-10.03,10.03-10.03 c5.53,0,10.03,4.499,10.03,10.03v7.114C138.03,229.602,137.134,230.497,136.03,230.497z M121.97,226.497h12.06v-5.114 c0-3.325-2.705-6.03-6.03-6.03s-6.03,2.705-6.03,6.03V226.497z"/><path fill="#FF9F70" d="M62.313,223.746L62.313,223.746c-9.616,0-17.411-7.896-17.411-17.637v-12.21 c0-9.741,7.795-17.637,17.411-17.637l0,0c9.616,0,17.411,7.896,17.411,17.637v12.21C79.724,215.849,71.929,223.746,62.313,223.746 z"/><path fill="#690589" d="M62.313,225.746c-10.703,0-19.411-8.809-19.411-19.637v-12.21c0-10.828,8.708-19.637,19.411-19.637 s19.411,8.809,19.411,19.637v12.21C81.724,216.936,73.016,225.746,62.313,225.746z M62.313,178.261 c-8.498,0-15.411,7.015-15.411,15.637v12.21c0,8.623,6.913,15.637,15.411,15.637c8.498,0,15.411-7.015,15.411-15.637v-12.21 C77.724,185.276,70.811,178.261,62.313,178.261z"/><path fill="#FCC24C" d="M84.945,228.497h-5.221h-9.381c0.009-0.15,0.023-0.298,0.023-0.451v-6.648 c0-4.443-3.602-8.045-8.045-8.045h-0.016c-4.443,0-8.045,3.602-8.045,8.045v6.648c0,0.153,0.014,0.301,0.023,0.451h-9.381h-5.221 c-5.64,0-10.212,4.572-10.212,10.212V252h65.687v-13.291C95.157,233.069,90.585,228.497,84.945,228.497z"/><path fill="#DEA42E" d="M84.945,228.497h-5.221h-3.029c5.64,0,10.212,4.572,10.212,10.212V252h8.249v-13.291 C95.157,233.069,90.585,228.497,84.945,228.497z"/><path fill="#FCE06A" d="M39.681,228.497h5.221h3.029c-5.64,0-10.212,4.572-10.212,10.212V252H29.47v-13.291 C29.47,233.069,34.042,228.497,39.681,228.497z"/><path fill="#690589" d="M95.157,254H29.47c-1.104,0-2-0.895-2-2v-13.291c0-6.734,5.478-12.212,12.212-12.212H52.26v-5.099 c0-5.538,4.506-10.045,10.045-10.045c5.555,0,10.061,4.506,10.061,10.045v5.099h12.579c6.734,0,12.212,5.478,12.212,12.212V252 C97.157,253.105,96.261,254,95.157,254z M31.47,250h61.687v-11.291c0-4.528-3.684-8.212-8.212-8.212H70.343 c-0.551,0-1.077-0.227-1.455-0.628c-0.378-0.4-0.574-0.939-0.542-1.489l0.01-0.15c0.004-0.061,0.01-0.122,0.01-0.183v-6.648 c0-3.333-2.712-6.045-6.045-6.045c-3.35,0-6.062,2.712-6.062,6.045v6.648c0,0.061,0.006,0.122,0.01,0.183l0.01,0.15 c0.032,0.55-0.164,1.089-0.542,1.489c-0.378,0.401-0.904,0.628-1.455,0.628H39.682c-4.528,0-8.212,3.684-8.212,8.212V250z"/><path fill="#E18152" d="M54.283,228.497h16.06v-7.114c0-4.435-3.595-8.03-8.03-8.03h0c-4.435,0-8.03,3.595-8.03,8.03V228.497z"/><path fill="#690589" d="M70.343,230.497h-16.06c-1.104,0-2-0.896-2-2v-7.114c0-5.53,4.5-10.03,10.03-10.03 s10.03,4.499,10.03,10.03v7.114C72.343,229.602,71.447,230.497,70.343,230.497z M56.283,226.497h12.06v-5.114 c0-3.325-2.705-6.03-6.03-6.03c-3.325,0-6.03,2.705-6.03,6.03V226.497z"/><path fill="#F4EFED" d="M135.151,89.157c-1.605-11.239-12.202-31.147-8.67-42.065c9.593-26.465-8.691-26.375-8.691-26.375 s-18.284-0.09-8.691,26.375c3.532,10.918-7.064,30.826-8.67,42.065c-1.605,11.239-2.241,36.238,6.101,48.163h11.26h11.26 C137.393,125.396,136.757,100.396,135.151,89.157z"/><path fill="#526FAA" d="M102.772,129.524c0.98,2.933,2.215,5.589,3.758,7.796h11.26h11.26c1.544-2.207,2.779-4.864,3.759-7.796 H102.772z"/><path fill="#FF4397" d="M129.492,69.902c-0.816-2.531-1.588-5.077-2.216-7.561h-18.972c-0.628,2.484-1.4,5.03-2.216,7.561H129.492 z"/><path fill="#FF4397" d="M109.135,47.219c0.688,2.207,0.807,4.776,0.549,7.561h16.213c-0.258-2.785-0.139-5.354,0.549-7.561 H109.135z"/><path fill="#690589" d="M129.492,71.902h-23.404c-0.639,0-1.24-0.306-1.617-0.823c-0.377-0.517-0.483-1.182-0.287-1.791 c0.949-2.944,1.642-5.308,2.18-7.437c0.225-0.888,1.024-1.51,1.939-1.51h18.972c0.916,0,1.714,0.622,1.939,1.51 c0.536,2.122,1.229,4.485,2.181,7.438c0.196,0.608,0.089,1.274-0.287,1.791C130.732,71.597,130.131,71.902,129.492,71.902z M108.814,67.902h17.953c-0.392-1.283-0.733-2.457-1.033-3.561h-15.887C109.546,65.447,109.206,66.621,108.814,67.902z"/><path fill="#690589" d="M125.897,56.78h-16.213c-0.563,0-1.099-0.237-1.478-0.653c-0.379-0.416-0.565-0.972-0.513-1.532 c0.251-2.702,0.093-4.983-0.467-6.781c-0.189-0.607-0.079-1.268,0.298-1.78c0.377-0.513,0.975-0.815,1.611-0.815h17.311 c0.636,0,1.234,0.303,1.611,0.815c0.377,0.512,0.488,1.173,0.298,1.781c-0.56,1.796-0.717,4.078-0.467,6.781 c0.052,0.56-0.135,1.116-0.514,1.532C126.996,56.543,126.459,56.78,125.897,56.78z M111.804,52.78h11.973 c-0.028-1.274,0.034-2.457,0.188-3.561h-12.348C111.77,50.324,111.832,51.507,111.804,52.78z"/><path fill="#690589" d="M129.05,139.32h-22.52c-0.653,0-1.265-0.319-1.639-0.854c-3.896-5.568-6.297-14.093-7.137-25.336 c-0.702-9.39-0.101-18.687,0.694-24.256c0.594-4.156,2.317-9.305,4.141-14.756c3.134-9.366,6.686-19.982,4.606-26.411 c-3.764-10.381-3.848-18.283-0.226-23.421c3.906-5.542,10.587-5.571,10.83-5.569c0.259-0.013,6.906,0.03,10.81,5.568 c3.622,5.139,3.538,13.041-0.249,23.488c-2.057,6.362,1.495,16.978,4.629,26.344c1.824,5.452,3.547,10.601,4.141,14.757 c0.796,5.569,1.396,14.866,0.694,24.256c-0.84,11.244-3.241,19.768-7.137,25.336C130.315,139.001,129.703,139.32,129.05,139.32z M107.604,135.32h20.372c6.958-11.106,6.916-33.837,5.195-45.88c-0.542-3.797-2.21-8.779-3.974-14.053 c-3.33-9.951-7.104-21.23-4.619-28.911c3.291-9.082,3.547-15.936,0.763-19.886c-2.705-3.837-7.457-3.873-7.54-3.873 c0,0,0,0-0.001,0c-0.058,0-4.909,0.07-7.586,3.909c-2.757,3.955-2.493,10.796,0.765,19.784c2.507,7.747-1.267,19.026-4.596,28.978 c-1.765,5.274-3.432,10.255-3.974,14.052C100.688,101.483,100.647,124.214,107.604,135.32z"/><path fill="#690589" d="M129.05,139.32h-22.52c-0.653,0-1.265-0.319-1.639-0.854c-1.576-2.253-2.928-5.049-4.017-8.309 c-0.204-0.61-0.102-1.281,0.274-1.803c0.376-0.522,0.98-0.831,1.623-0.831h30.037c0.643,0,1.247,0.309,1.623,0.831 c0.376,0.522,0.478,1.193,0.274,1.803c-1.09,3.261-2.441,6.057-4.017,8.309C130.315,139.001,129.703,139.32,129.05,139.32z M107.604,135.32h20.373c0.703-1.122,1.354-2.392,1.946-3.796h-24.265C106.25,132.929,106.901,134.198,107.604,135.32z"/><circle cx="76.613" cy="99.831" r="37.489" fill="#526FAA"/><path fill="#690589" d="M62.629,92.417c0,2.065-1.674,3.738-3.738,3.738c-2.065,0-3.738-1.674-3.738-3.738 s1.674-3.738,3.738-3.738C60.956,88.679,62.629,90.353,62.629,92.417z"/><path fill="#690589" d="M73.887,92.417c0,2.065-1.674,3.738-3.738,3.738s-3.738-1.674-3.738-3.738s1.674-3.738,3.738-3.738 S73.887,90.353,73.887,92.417z"/><path fill="#690589" d="M68.258,83.058c0,2.065-1.674,3.738-3.738,3.738s-3.738-1.674-3.738-3.738 c0-2.065,1.674-3.738,3.738-3.738S68.258,80.993,68.258,83.058z"/><path fill="#690589" d="M76.613,139.32c-21.775,0-39.49-17.715-39.49-39.49c0-21.774,17.715-39.489,39.49-39.489 c21.774,0,39.489,17.715,39.489,39.489C116.103,121.605,98.388,139.32,76.613,139.32z M76.613,64.341 c-19.569,0-35.49,15.92-35.49,35.489c0,19.569,15.92,35.49,35.49,35.49c19.569,0,35.489-15.92,35.489-35.49 C112.103,80.262,96.182,64.341,76.613,64.341z"/></svg>