<svg xmlns="http://www.w3.org/2000/svg"  viewBox="0 0 100 100" width="100px" height="100px"><path fill="#39c1d7" d="M69.921,81.961h-39c-6.6,0-12-5.4-12-12v-39c0-6.6,5.4-12,12-12h39c6.6,0,12,5.4,12,12v39C81.921,76.561,76.521,81.961,69.921,81.961z"/><path fill="#1f212b" d="M69.921,82.961h-39c-7.168,0-13-5.832-13-13v-39c0-7.168,5.832-13,13-13h39c7.168,0,13,5.832,13,13v39C82.921,77.129,77.089,82.961,69.921,82.961z M30.921,19.961c-6.065,0-11,4.935-11,11v39c0,6.065,4.935,11,11,11h39c6.065,0,11-4.935,11-11v-39c0-6.065-4.935-11-11-11H30.921z"/><path fill="#39c1d7" d="M77.421,48.461v18.663c0,5.685-4.652,10.337-10.337,10.337H33.758c-5.685,0-10.337-4.652-10.337-10.337V33.798c0-5.685,4.652-10.337,10.337-10.337h33.663"/><path fill="#1f212b" d="M67.084 77.961H33.758c-5.976 0-10.837-4.861-10.837-10.837V33.798c0-5.976 4.861-10.837 10.837-10.837h33.663c.276 0 .5.224.5.5s-.224.5-.5.5H33.758c-5.424 0-9.837 4.413-9.837 9.837v33.326c0 5.424 4.413 9.837 9.837 9.837h33.326c5.424 0 9.837-4.413 9.837-9.837V48.461c0-.276.224-.5.5-.5s.5.224.5.5v18.663C77.921 73.099 73.06 77.961 67.084 77.961zM77.421 45.961c-.276 0-.5-.224-.5-.5v-4c0-.276.224-.5.5-.5s.5.224.5.5v4C77.921 45.737 77.698 45.961 77.421 45.961zM77.421 39.961c-.276 0-.5-.224-.5-.5v-2c0-.276.224-.5.5-.5s.5.224.5.5v2C77.921 39.737 77.698 39.961 77.421 39.961z"/><path fill="#39c1d7" d="M44.421 43.461L44.421 38.461 51.421 38.461 51.421 62.461 44.421 62.461 44.421 57.461"/><path fill="#1f212b" d="M51.421,62.961h-7c-0.276,0-0.5-0.224-0.5-0.5v-5c0-0.276,0.224-0.5,0.5-0.5s0.5,0.224,0.5,0.5v4.5h6v-23h-6v4.5c0,0.276-0.224,0.5-0.5,0.5s-0.5-0.224-0.5-0.5v-5c0-0.276,0.224-0.5,0.5-0.5h7c0.276,0,0.5,0.224,0.5,0.5v24C51.921,62.737,51.698,62.961,51.421,62.961z"/><path fill="#fdfcee" d="M63.421 62.71L51.421 66.839 51.421 33.161 63.421 37.29z"/><path fill="#1f212b" d="M51.421,67.339c-0.103,0-0.204-0.032-0.29-0.093c-0.132-0.094-0.21-0.246-0.21-0.407V33.161c0-0.162,0.078-0.313,0.21-0.407c0.131-0.094,0.298-0.119,0.453-0.065l12,4.129c0.201,0.069,0.337,0.259,0.337,0.473V62.71c0,0.213-0.136,0.403-0.337,0.473l-12,4.129C51.531,67.33,51.476,67.339,51.421,67.339z M51.921,33.862v32.276l11-3.785V37.647L51.921,33.862z M63.421,62.71h0.01H63.421z"/><path fill="#39c1d7" d="M54.421 49.461A1 1 0 1 0 54.421 51.461A1 1 0 1 0 54.421 49.461Z"/><path fill="#1f212b" d="M54.421,51.961c-0.827,0-1.5-0.673-1.5-1.5s0.673-1.5,1.5-1.5s1.5,0.673,1.5,1.5S55.248,51.961,54.421,51.961z M54.421,49.961c-0.275,0-0.5,0.224-0.5,0.5s0.225,0.5,0.5,0.5s0.5-0.224,0.5-0.5S54.697,49.961,54.421,49.961z"/><path fill="#fdfcee" d="M40.696,56.697l6.164-6.077c0.058-0.057,0.098-0.123,0.13-0.192c0.013-0.025,0.023-0.05,0.033-0.077c0.015-0.045,0.023-0.091,0.028-0.137c0.005-0.034,0.02-0.064,0.02-0.099c0-0.037-0.041-0.565-0.212-0.733l-6.164-6.077c-0.283-0.279-0.745-0.279-1.028,0c-0.283,0.279-0.283,0.734,0,1.013l5.154,4.772L33.859,49.03c-0.4,0.31-0.407,0.69-0.407,1.084s0.327,0.716,0.727,0.832h10.413l-4.923,4.738c-0.283,0.279-0.283,0.734,0,1.013C39.951,56.975,40.413,56.975,40.696,56.697z"/><path fill="#1f212b" d="M40.182,43.094c0.186,0,0.373,0.07,0.514,0.209l6.164,6.077c0.171,0.168,0.212,0.696,0.212,0.733c0,0.035-0.016,0.065-0.021,0.099c-0.005,0.047-0.014,0.093-0.028,0.137c-0.01,0.027-0.02,0.052-0.033,0.077c-0.032,0.069-0.072,0.135-0.13,0.192l-6.164,6.077c-0.141,0.139-0.328,0.209-0.514,0.209s-0.373-0.07-0.514-0.209c-0.282-0.279-0.282-0.734,0-1.013l4.923-4.738H34.178c-0.4-0.116-0.726-0.438-0.726-0.832c0-0.394,0.007-0.774,0.407-1.084l10.963,0.058l-5.154-4.772c-0.282-0.279-0.282-0.734,0-1.013C39.81,43.164,39.996,43.094,40.182,43.094 M40.182,42.094c-0.459,0-0.891,0.176-1.216,0.497c-0.329,0.324-0.51,0.757-0.51,1.219c0,0.462,0.181,0.894,0.51,1.219l3.29,3.046l-8.391-0.044c-0.002,0-0.003,0-0.005,0c-0.222,0-0.437,0.074-0.613,0.21c-0.795,0.616-0.795,1.435-0.795,1.875c0,0.821,0.582,1.541,1.448,1.793c0.091,0.026,0.184,0.04,0.279,0.04h7.932l-3.135,3.017c-0.337,0.333-0.518,0.765-0.518,1.227c0,0.462,0.181,0.894,0.51,1.219c0.325,0.321,0.757,0.497,1.216,0.497s0.891-0.176,1.216-0.497l6.164-6.077c0.136-0.134,0.245-0.291,0.334-0.48c0.018-0.035,0.044-0.096,0.068-0.161c0.035-0.106,0.057-0.196,0.071-0.287c0.02-0.077,0.037-0.172,0.037-0.289c0-0.039-0.006-0.948-0.51-1.445l-6.164-6.077C41.073,42.271,40.641,42.094,40.182,42.094L40.182,42.094z"/></svg>