<svg xmlns="http://www.w3.org/2000/svg"  viewBox="0 0 64 64" width="64px" height="64px"><path fill="#72caaf" d="M27,59H9c-1.105,0-2-0.895-2-2V7c0-1.105,0.895-2,2-2h18c1.105,0,2,0.895,2,2v50 C29,58.105,28.105,59,27,59z"/><path fill="#f9e3ae" d="M21.46 32.26L22.28 37.06 18 34.81 17.97 34.79 13.66 37.06 14.49 32.26 11 28.86 15.82 28.16 17.97 23.79 18 23.85 20.13 28.16 24.94 28.86z"/><path fill="#ed7899" d="M55,59H37c-1.105,0-2-0.895-2-2V7c0-1.105,0.895-2,2-2h18c1.105,0,2,0.895,2,2v50 C57,58.105,56.105,59,55,59z"/><path fill="#f9e3ae" d="M45.972 23.795L48.127 28.16 52.944 28.86 49.458 32.258 50.281 37.056 45.972 34.791 41.663 37.056 42.486 32.258 39 28.86 43.818 28.16z"/><path fill="#5dbc9d" d="M29,59H7V48c0-1.657,1.343-3,3-3h16c1.657,0,3,1.343,3,3V59z"/><path fill="#e0678f" d="M57,59H35V48c0-1.657,1.343-3,3-3h16c1.657,0,3,1.343,3,3V59z"/><path fill="#f6d397" d="M21.46 32.26L22.28 37.06 18 34.81 18 23.85 20.13 28.16 24.94 28.86zM49.46 32.26L50.28 37.06 46 34.81 46 23.85 48.13 28.16 52.94 28.86z"/><path fill="#97e0bb" d="M26,9H10C8.343,9,7,7.657,7,6V5h22v1C29,7.657,27.657,9,26,9z"/><path fill="#f283a5" d="M54,9H38c-1.657,0-3-1.343-3-3V5h22v1C57,7.657,55.657,9,54,9z"/><path fill="#8d6c9f" d="M27,4H9C7.346,4,6,5.346,6,7v50c0,1.654,1.346,3,3,3h18c1.654,0,3-1.346,3-3V7 C30,5.346,28.654,4,27,4z M28,57c0,0.552-0.448,1-1,1H9c-0.552,0-1-0.448-1-1v-5c0.553,0,1-0.447,1-1v-2c0-0.553-0.447-1-1-1V7 c0-0.552,0.448-1,1-1h18c0.552,0,1,0.448,1,1v41c-0.553,0-1,0.447-1,1v2c0,0.553,0.447,1,1,1V57z"/><path fill="#8d6c9f" d="M25 54H11c-.553 0-1 .447-1 1s.447 1 1 1h14c.553 0 1-.447 1-1S25.553 54 25 54zM25 44H11c-.553 0-1 .447-1 1s.447 1 1 1h14c.553 0 1-.447 1-1S25.553 44 25 44zM25 8H11c-.553 0-1 .447-1 1s.447 1 1 1h14c.553 0 1-.447 1-1S25.553 8 25 8zM25.896 28.552c-.118-.362-.431-.626-.808-.681l-4.297-.625-1.923-3.894c-.336-.684-1.457-.684-1.793 0l-1.922 3.894-4.297.625c-.377.055-.689.318-.808.681-.117.361-.02.759.253 1.024l3.11 3.031-.734 4.28c-.064.375.09.754.397.978.31.226.717.254 1.054.076l3.843-2.021 3.844 2.021c.146.077.307.115.466.115.207 0 .414-.064.588-.191.308-.224.462-.603.397-.978l-.734-4.28 3.11-3.031C25.915 29.311 26.013 28.913 25.896 28.552zM20.76 31.542c-.235.229-.343.561-.287.885l.48 2.802-2.516-1.322c-.146-.077-.306-.115-.466-.115s-.319.038-.466.115l-2.515 1.322.48-2.802c.056-.324-.052-.655-.287-.885l-2.035-1.983 2.812-.409c.326-.047.607-.252.753-.547l1.258-2.549 1.259 2.549c.146.295.427.5.753.547l2.812.409L20.76 31.542zM19 51v-2c0-.553-.447-1-1-1s-1 .447-1 1v2c0 .553.447 1 1 1S19 51.553 19 51zM14 51v-2c0-.553-.447-1-1-1s-1 .447-1 1v2c0 .553.447 1 1 1S14 51.553 14 51zM24 51v-2c0-.553-.447-1-1-1s-1 .447-1 1v2c0 .553.447 1 1 1S24 51.553 24 51zM55 4H37c-1.654 0-3 1.346-3 3v50c0 1.654 1.346 3 3 3h18c1.654 0 3-1.346 3-3V7C58 5.346 56.654 4 55 4zM56 57c0 .552-.448 1-1 1H37c-.552 0-1-.448-1-1v-5c.553 0 1-.447 1-1v-2c0-.553-.447-1-1-1V7c0-.552.448-1 1-1h18c.552 0 1 .448 1 1v41c-.553 0-1 .447-1 1v2c0 .553.447 1 1 1V57z"/><path fill="#8d6c9f" d="M53 54H39c-.553 0-1 .447-1 1s.447 1 1 1h14c.553 0 1-.447 1-1S53.553 54 53 54zM53 44H39c-.553 0-1 .447-1 1s.447 1 1 1h14c.553 0 1-.447 1-1S53.553 44 53 44zM53 8H39c-.553 0-1 .447-1 1s.447 1 1 1h14c.553 0 1-.447 1-1S53.553 8 53 8zM53.896 28.552c-.118-.362-.431-.626-.808-.681l-4.297-.625-1.923-3.894c-.336-.684-1.457-.684-1.793 0l-1.922 3.894-4.297.625c-.377.055-.689.318-.808.681-.117.361-.02.759.253 1.024l3.11 3.031-.734 4.28c-.064.375.09.754.397.978.31.226.718.254 1.054.076l3.843-2.021 3.844 2.021c.146.077.307.115.466.115.207 0 .414-.064.588-.191.308-.224.462-.603.397-.978l-.734-4.28 3.11-3.031C53.915 29.311 54.013 28.913 53.896 28.552zM48.76 31.542c-.235.229-.343.561-.287.885l.48 2.802-2.516-1.322c-.146-.077-.306-.115-.466-.115s-.319.038-.466.115l-2.515 1.322.48-2.802c.056-.324-.052-.655-.287-.885l-2.035-1.983 2.812-.409c.326-.047.607-.252.753-.547l1.258-2.549 1.259 2.549c.146.295.427.5.753.547l2.812.409L48.76 31.542zM47 51v-2c0-.553-.447-1-1-1s-1 .447-1 1v2c0 .553.447 1 1 1S47 51.553 47 51zM42 51v-2c0-.553-.447-1-1-1s-1 .447-1 1v2c0 .553.447 1 1 1S42 51.553 42 51zM52 51v-2c0-.553-.447-1-1-1s-1 .447-1 1v2c0 .553.447 1 1 1S52 51.553 52 51z"/></svg>